<mxfile host="65bd71144e">
    <diagram id="I5xdktWFiU8OkKynLwch" name="Page-1">
        <mxGraphModel dx="769" dy="962" grid="1" gridSize="10" guides="1" tooltips="1" connect="1" arrows="1" fold="1" page="1" pageScale="1" pageWidth="850" pageHeight="1100" math="0" shadow="0">
            <root>
                <mxCell id="0"/>
                <mxCell id="1" parent="0"/>
                <mxCell id="59" value="Gioconda: Cuadro" style="swimlane;fontStyle=1;align=center;verticalAlign=top;childLayout=stackLayout;horizontal=1;startSize=26;horizontalStack=0;resizeParent=1;resizeParentMax=0;resizeLast=0;collapsible=1;marginBottom=0;" vertex="1" parent="1">
                    <mxGeometry x="140" y="93" width="160" height="150" as="geometry"/>
                </mxCell>
                <mxCell id="60" value="adscripcionCronologica: int&#10;&#10;tecnica: string&#10;" style="text;strokeColor=none;fillColor=none;align=left;verticalAlign=top;spacingLeft=4;spacingRight=4;overflow=hidden;rotatable=0;points=[[0,0.5],[1,0.5]];portConstraint=eastwest;" vertex="1" parent="59">
                    <mxGeometry y="26" width="160" height="54" as="geometry"/>
                </mxCell>
                <mxCell id="61" value="" style="line;strokeWidth=1;fillColor=none;align=left;verticalAlign=middle;spacingTop=-1;spacingLeft=3;spacingRight=3;rotatable=0;labelPosition=right;points=[];portConstraint=eastwest;strokeColor=inherit;" vertex="1" parent="59">
                    <mxGeometry y="80" width="160" height="8" as="geometry"/>
                </mxCell>
                <mxCell id="62" value="gioconda(string,string,string)&#10;&#10;toString(): string" style="text;strokeColor=none;fillColor=none;align=left;verticalAlign=top;spacingLeft=4;spacingRight=4;overflow=hidden;rotatable=0;points=[[0,0.5],[1,0.5]];portConstraint=eastwest;" vertex="1" parent="59">
                    <mxGeometry y="88" width="160" height="62" as="geometry"/>
                </mxCell>
                <mxCell id="77" value="-cuadro" style="html=1;verticalAlign=bottom;endArrow=block;entryX=-0.014;entryY=0.35;entryDx=0;entryDy=0;entryPerimeter=0;" edge="1" parent="1" source="61" target="80">
                    <mxGeometry x="-0.0015" width="80" relative="1" as="geometry">
                        <mxPoint x="345" y="170" as="sourcePoint"/>
                        <mxPoint x="470" y="210" as="targetPoint"/>
                        <Array as="points">
                            <mxPoint x="500" y="170"/>
                        </Array>
                        <mxPoint as="offset"/>
                    </mxGeometry>
                </mxCell>
                <mxCell id="79" value="Cuadro" style="swimlane;fontStyle=1;align=center;verticalAlign=top;childLayout=stackLayout;horizontal=1;startSize=26;horizontalStack=0;resizeParent=1;resizeParentMax=0;resizeLast=0;collapsible=1;marginBottom=0;" vertex="1" parent="1">
                    <mxGeometry x="550" y="93" width="230" height="230" as="geometry"/>
                </mxCell>
                <mxCell id="80" value="autor: string&#10;&#10;subtecnica: string&#10;&#10;materialSoporte: string&#10;&#10;estadoConservacion: string&#10;&#10;localizacion: string" style="text;strokeColor=none;fillColor=none;align=left;verticalAlign=top;spacingLeft=4;spacingRight=4;overflow=hidden;rotatable=0;points=[[0,0.5],[1,0.5]];portConstraint=eastwest;" vertex="1" parent="79">
                    <mxGeometry y="26" width="230" height="144" as="geometry"/>
                </mxCell>
                <mxCell id="81" value="" style="line;strokeWidth=1;fillColor=none;align=left;verticalAlign=middle;spacingTop=-1;spacingLeft=3;spacingRight=3;rotatable=0;labelPosition=right;points=[];portConstraint=eastwest;strokeColor=inherit;" vertex="1" parent="79">
                    <mxGeometry y="170" width="230" height="8" as="geometry"/>
                </mxCell>
                <mxCell id="82" value="replica(string,string,string,string, string)&#10;&#10;toString(): String" style="text;strokeColor=none;fillColor=none;align=left;verticalAlign=top;spacingLeft=4;spacingRight=4;overflow=hidden;rotatable=0;points=[[0,0.5],[1,0.5]];portConstraint=eastwest;" vertex="1" parent="79">
                    <mxGeometry y="178" width="230" height="52" as="geometry"/>
                </mxCell>
                <mxCell id="86" style="edgeStyle=none;html=1;exitX=0.5;exitY=0;exitDx=0;exitDy=0;entryX=0.355;entryY=1.051;entryDx=0;entryDy=0;entryPerimeter=0;" edge="1" parent="1" source="83" target="82">
                    <mxGeometry relative="1" as="geometry"/>
                </mxCell>
                <mxCell id="83" value="replics" style="html=1;" vertex="1" parent="1">
                    <mxGeometry x="440" y="450" width="110" height="50" as="geometry"/>
                </mxCell>
                <mxCell id="87" style="edgeStyle=none;html=1;exitX=0.5;exitY=0;exitDx=0;exitDy=0;" edge="1" parent="1" source="84" target="82">
                    <mxGeometry relative="1" as="geometry"/>
                </mxCell>
                <mxCell id="84" value="original" style="html=1;" vertex="1" parent="1">
                    <mxGeometry x="740" y="450" width="110" height="50" as="geometry"/>
                </mxCell>
            </root>
        </mxGraphModel>
    </diagram>
</mxfile>